<svg xmlns="http://www.w3.org/2000/svg" viewBox="0 0 60 40">
  <rect width="60" height="40" rx="5" fill="#FFFFFF"/>
  <g transform="translate(10, 10)">
    <path d="M20,0c-4,0-5.3,2.2-5.3,4.6C15.4,9.5,18.5,11,20,11c1.2,0,5.4-1.2,5.4-6.4C25.4,2.2,24,0,20,0z" fill="#003087"/>
    <path d="M7,0C3,0,1.7,2.2,1.7,4.6C2.4,9.5,5.5,11,7,11c1.2,0,5.4-1.2,5.4-6.4C12.4,2.2,11,0,7,0z" fill="#009CDE"/>
    <path d="M38,11h-5l-2-10h5L38,11zM20,13h-6l-1,6h6L20,13zM7,13H1l-1,6h6L7,13z" fill="#012169"/>
  </g>
</svg> 